<svg xmlns="http://www.w3.org/2000/svg" xmlns:sketch="http://www.bohemiancoding.com/sketch/ns" width="100.0px" height="100px" viewBox="0 0 512 512"><title>Keyboard</title><path d="M512 159.991v224.019c0 17.66-14.329 31.991-32.004 31.991h-447.993c-17.674 0-32.004-14.323-32.004-31.991v-224.019c0-17.66 14.329-31.991 32.004-31.991h207.996v-32h32v32h207.996c17.674 0 32.004 14.323 32.004 31.991zm-480 216.004c0 4.421 3.573 8.005 8.002 8.005h431.996c4.419 0 8.002-3.586 8.002-8.005v-207.989c0-4.421-3.573-8.005-8.002-8.005h-431.996c-4.419 0-8.002 3.586-8.002 8.005v207.989zm96-87.995v-32h-64v32h64zm224-64v-32h-32v32h32zm-64 0v-32h-32v32h32zm-128 0v-32h-32v32h32zm64 0v-32h-32v32h32zm-128 0v-32h-32v32h32zm160 64v-32h-32v32h32zm-64 0v-32h-32v32h32zm128 0v-32h-32v32h32zm64 0v-32h-32v32h32zm64 64v-32h-32v32h32zm0-160v96h-32v-64h-32v-32h64zm-64 160v-32h-256v32h256zm-288 0v-32h-32v32h32z" fill="#000000" sketch:type="MSShapeGroup" fill-rule="evenodd"/></svg>